<svg width="71" height="119" xmlns="http://www.w3.org/2000/svg">
 <g id="Layer_1">
  <title>Layer 1</title>
  <path fill="none" stroke="#000" opacity="undefined" d="m35.99892,1.49905c0,0 0.25,0 0.5,0c0.5,0 0.75,0 0.75,0c0.25,0 0.5,0 0.5,0c0.25,0 0.75,0 1,0c0.25,0 0.75,0 1,0c0.25,0 0.5,0 1,0c0,0 0.5,0 0.75,0c0.25,0 0.5,0 0.75,0c0,0 0.25,0 0.5,0c0.25,0 0.25,0 0.5,0c0.25,0 0.5,0 0.5,0c0.25,0 0.25,0 0.5,0c0,0 0.25,0 0.25,0c0.5,0 0.5,0 0.75,0.25c0,0 0.25,0 0.25,0c0.25,0 0.25,0 0.25,0c0,0 0,0 0,0.25c0,0 0,0.25 0,0.5c0,0.25 0,0.5 0,0.5c0,0 0,0.25 0,0.25c0,0 0,0 0,0.25c0,0 0,0 0,0c0,0.25 0,0.25 0,0.5c0,0 0,0 0,0.25c0,0 0,0.25 0,0.25c0,0.25 0,0.25 0,0.25c0,0 0,0.25 0,0.25c0,0 0.07321,-0.17679 0.25,0c0.17679,0.17679 0,0.25 0,0.25c0,0 0,0.25 0,0.25c0,0 0,0.5 0,0.5c0,0.25 0,0.5 0,0.75c0,0 0,0.25 0,0.25c0,0.25 0.07321,0.07321 0.25,0.25c0.17679,0.17679 0,0.25 0,0.5c0,0 0,0 0,0.25c0,0 0,0 0,0.25c0,0 0,0.25 0,0.25c0,0 0,0.25 0,0.5c0,0 0,0 0,0.25c0,0 0,0.25 0,0.25c0,0 0,0.25 0,0.25c0,0.25 0.25,0.25 0.25,0.5c0,0 0,0.25 0,0.5c0,0 0,0.25 0,0.25c0,0.25 0,0.25 0,0.5c0,0 0,0.25 0,0.25c0.25,0.25 0.25,0.25 0.25,0.5c0,0 0,0.25 0,0.25c0,0.25 0,0.25 0,0.5c0,0 0,0.25 0,0.5c0,0 0,0.25 0,0.25c0,0.25 0,0.5 0,0.5c0,0.25 0,0.25 0,0.5c0,0 0,0.25 0,0.5c0,0 0,0.25 0,0.25c0,0 0,0.25 0,0.25c0,0 0,0 0,0.25c0,0 0,0 0,0c0,0 0,0.25 0,0.25c0,0 0,0 0,0.25c0,0 -0.25,0.25 0,0.25c0.25,0 0,-0.25 0,-0.25c0,0 0,0 0,-0.25c0,0 0,0 0,0.25c0,0 0,0.25 0,0.5c0,0 0,0.25 0,0.5c0,0.25 0,0.25 0,0.5c0,0.25 0,0.25 0,0.5c0,0 0,0 0,0.25c0,0.25 0,0.25 0,0.25c0,0.25 0,0.25 0,0.5c0,0 0,0.25 0,0.5c0,0.25 0,0.25 0,0.5c0,0.25 0,0.5 0,0.75c0,0 0.09567,0.26904 0,0.5c-0.13528,0.32663 -0.25,0.5 -0.25,0.75c0,0 0,0.25 0,0.5c0,0.25 0,0.5 0,0.5c0,0.25 0,0.49997 0,0.74997c0,0 0,0.25 0,0.5c0,0 0,0.25 0,0.25c0,0.25 0,0.25 0,0.5c0,0 0,0.25 0,0.25c0,0.25 0,0.5 0,0.75c0,0 0,0.25 0,0.25c0,0.25 0,0.5 0,0.75c0,0 0,0.25 0,0.25c0,0.25 0,0.25 0,0.5c0,0 0,0.25 0,0.25c0,0.25 0,0.25 0,0.5c0,0.25 0,0.25 0,0.5c0,0 0,0.25 0,0.5c0,0.25 0,0.25 0,0.5c0,0.25 0,0.5 0,0.75c0,0.25 0,0.5 0,0.5c0,0.25 0,0.25 0,0.5c0,0 0,0.25 0,0.5c0,0.25 0,0.25 0,0.5c0,0.25 0,0.5 0,0.75c0,0 0,0.25 0,0.5c0,0 0,0.25 0,0.25c0,0.25 0,0.25 0,0.5c0,0.25 0,0.5 0,0.5c0,0.25 0,0.5 0,0.75c0,0.25 0,0.5 0,0.75c0,0.25 0,0.25 0,0.5c0,0.25 0,0.5 0,0.75c0,0.25 0,0.5 0,0.75c0,0.25 0,0.25 0,0.5c0,0.25 0,0.25 0,0.5c0,0 0,0.25 0,0.5c0,0 0,0.25 0,0.5c0,0.25 0,0.5 0,0.75c0,0.25 0,0.5 0,0.75c0,0.25 0,0.5 0,0.75c0,0 0,0.25 0,0.25c0,0.25 0,0.5 0,0.75c0,0 0.25,0.25 0.25,0.25c0,0.25 0,0.25 0,0.25c0,0.25 0,0.25 0,0.25c0,0 0,0.25 0,0.25c0,0.25 0,0.25 0,0.25c0,0.25 0,0.25 0,0.5c0,0 0,0 0,0c0,0.25 0,0.25 0,0.25c0,0 0,0.25 0,0.25c0,0 0.07321,-0.17679 0.25,0c0.17679,0.17679 0,0.25 0.25,0.25c0,0 0,0.24997 0.25,0.24997c0.25,0 0.26904,0.15433 0.5,0.25c0.32663,0.13528 0.5,0.5 0.75,0.75c0,0 0.25,0.25 0.5,0.25c0,0 0,0.25 0,0.25c0.25,0 0.25,0 0.25,0.25c0,0 0,0 0.25,0.25c0,0 0,0.25 0,0.25c0,0.25 0,0.5 0,0.5c0,0.25 0,0.25 0,0.5c0,0 0,0.25 0,0.25c0,0 0,0.25 0,0.25c0,0 0,0 0,0.25c0,0 0.17679,0.07321 0,0.25c-0.17679,0.17679 -0.25,0.25 -0.25,0.25c0,0.25 -0.25,0.25 -0.25,0.25c0,0 0,0.25 0,0.25c-0.25,0 -0.25,0 -0.25,0.25c0,0 0,0 -0.25,0c0,0 0,0 0,0.25c0,0 -0.25,0 -0.25,0.25c0,0 0.17679,0.07321 0,0.25c-0.17679,0.17679 -0.32321,0.07321 -0.5,0.25c-0.17679,0.17679 0,0.25 0,0.5c0,0 0,0.25 0,0.25c-0.25,0 -0.25,0.25 -0.25,0.25c0,0 0,0 0,0c0,0.25 0,0.25 0,0.25c0,0.25 0,0.25 0,0.25c0,0.25 0.17679,0.32321 0,0.5c-0.17679,0.17679 -0.25,0.25 -0.25,0.25c0,0 0,0.25 0,0.25c0,0 0,0.25 0,0.25c0,0 0,0.25 0,0.25c0,0.25 0,0.25 0,0.25c0,0 0,0.25 0,0.25c0,0 0,0 0,0.25c0,0 0,0 0,0c0,0.25 0,0.25 0,0.25c0,0 0,0.25 0,0.25c0,0 0,0 0,0.25c0,0 0,0 0,0.25c0,0 0,0.25 0,0.25c0,0 0,0.25 0,0.25c0,0 0,0 0,0.25c0,0 0,0 0.25,0.25c0,0 0.07321,-0.17679 0.25,0c0.17679,0.17679 0,0.25 0,0.25c0.25,0 0.32321,0.07321 0.5,0.25c0.17679,0.17679 0.25,0.25 0.25,0.25c0,0.25 0.25,0.25 0.25,0.5c0,0 0,0.25 0,0.25c0.25,0.25 0.25,0.25 0.25,0.5c0,0.25 0,0.25 0.25,0.5c0,0 0,0.25 0,0.25c0,0 0,0 0,0.25c0,0 0,0 0,0.25c0,0 0,0 0.25,0c0,0 0,0 0,0c0.25,0 0.25,0 0.25,0.25c0,0 0.25,0 0.25,0c0,0.25 0.07321,0.07324 0.24997,0.25c0.17679,0.17679 0,0.25 0,0.25c0,0.25 0,0.25 0,0.25c0,0.25 0,0.25 0,0.25c0,0 0,0.25 0,0.25c0.25,0 0.25,0.25 0.25,0.25c0,0 0,0 0,0.25c0,0 0,0 0,0c0,0 0,0.25 0,0.25c0,0 0,0.25 0,0.25c0,0 0,0 0,0.25c0,0 0,0 0,0.25c0,0 0,0 0,0.25c0,0 0,0 0,0c0,0.25 0,0.25 0,0.25c0,0.25 0,0.25 0,0.25c0,0.25 0,0.25 0,0.25c0,0 0,0.25 0,0.25c0,0 0,0 0,0.25c0,0 0,0 0,0.25c0,0 0,0 0,0.25c0,0 0,0 0,0.25c0,0 0,0 0,0.25c0,0 0,0 0,0.25c0,0 0,0 0,0c0,0 0,0.25 0,0.25c0,0 0,0 0,0.25c0,0 0,0 0,0c0,0.25 0,0.25 0,0.25c0,0 0,0.25 0,0.25c0,0 0,0 0,0.25c0,0 0,0 0,0c0,0.25 0,0.25 0,0.25c0,0 0,0.25 0,0.25c0,0 0,0 0,0.24997c0,0 0,0 0,0c0,0 0,0.25 0,0.25c0,0 0,0 0,0.25c0,0 0,0 0,0.25c0,0 0,0.25 0,0.25c0,0 0,0 0,0.25c0,0 0,0 0,0c0,0.25 0,0.25 0,0.25c0,0 0,0.25 0,0.25c0,0 0,0 0,0.25c0,0 0,0 0,0c0,0.25 0,0.25 0,0.25c0,0.25 0,0.25 0,0.25c0,0 0,0 0,0.25c0,0 0,0 0,0.25c0,0 0,0 0,0.25c0,0 0,0 0,0c0,0.25 0,0.25 0,0.25c0,0 0,0.25 0,0.25c0,0 0,0 0,0.25c0,0 0,0 0,0c0,0.25 0,0.25 0,0.25c0,0 0,0 0,0.25c0,0 0,0 0,0c0,0.25 0,0.25 0,0.25c0,0 0,0.25 0,0.25c0,0 0,0 0,0.25c0,0 0,0 0,0c0,0.25 0,0.25 0,0.25c0,0.25 0,0.25 0,0.25c0,0 0,0.25 0,0.25c0,0 0,0 0,0c0,0.25 0,0.25 0,0.25c0,0 0,0.25 0,0.25c0,0 0,0 0,0.25c0,0 0,0 0,0c0,0.25 0,0.25 0,0.25c0,0.25 0,0.25 0,0.5c0,0 0,0 0,0.25c0,0 0,0 0,0.25c0,0 0,0.25 0,0.25c0,0 0,0.25 0,0.25c0,0 0,0.25 0,0.25c0,0.25 0,0.25 0,0.5c0,0 0,0.25 0,0.25c0,0.25 0,0.25 0,0.25c0,0.25 0,0.25 0,0.25c0,0 0,0 0,0.25c0,0 0,0 0,0c0,0.25 0,0.25 0,0.25c0,0 0,0.25 0,0.25c0,0 0,0 0,0c0,0.25 0,0.25 0,0.25c0,0.25 0,0.25 0.25,0.25c0,0 0,0.25 0,0.25c0,0 0,0 0,0c0,0 0,0 0.25,0c0,0 0,0 0,0c0.25,0 0.25,0 0.25,0c0,0 0.25,0 0.25,0c0,0 0,0 0.25,0c0,0 0,0 0,0c0,0 0.25,0 0.25,0c0,0 0,0 0.25,0c0,0 0,0 0,0c0.25,0 0.25,0 0.25,0c0,0 0.25,0 0.25,0c0,0 0,0 0.25,0c0,0 0,0 0,0c0.25,0 0.25,0 0.25,0c0.25,0 0.25,0 0.25,0c0,0 0.25,0 0.25,0c0,0 0.25,0 0.5,0c0,0 0.25,0.25 0.25,0.25c0,0 0.25,0 0.5,0c0,0 0,0 0.25,0c0,0 0.25,0 0.25,0c0,0 0.25,0 0.25,0c0,0 0,0 0.25,0c0,0 0,0 0,0c0.25,0 0.25,0 0.5,0c0,0 0,0 0,0c0,0 -0.17679,0.07321 0,0.25c0.17679,0.17679 0.25,0 0.25,0c0,0 0,0.25 0,0.25c0,0 0.25,0 0.25,0c0,0 0,0.25 0,0.25c0,0 0,0 0,0c0,0 0,0.25 0.25,0.25c0,0 0,0 0,0c0,0 0,0 0.25,0c0,0 0,0.25 0,0.25c0,0 0,0 0,0c0.25,0 0.25,0.25 0.25,0.25c0,0 0,0 0,0c0.25,0 0.25,0 0.25,0c0,0.25 0,0.25 0,0.25c0,0 0,0 0,0c0.25,0 0.25,0.25 0.25,0.25c0,0 0,0 0,0c0,0 0.25,0 0.25,0c0,0 0,0.25 0,0.25c0,0 0.25,0 0.25,0c0,0 0,0 0,0c0,0 0,0.25 0.25,0.25c0,0 0,0 0,0c0,0 0,0.25 0.25,0.25c0,0 0,0 0,0c0,0.25 0.25,0.25 0.25,0.25c0,0 0,0 0,0c0.25,0.25 0.25,0.25 0.25,0.25c0,0 0.07321,-0.17679 0.25,0c0.17679,0.17679 0,0.25 0.25,0.25c0,0 0,0 0,0c0.25,0.25 0.25,0.25 0.25,0.25c0,0 0.25,0 0.25,0c0,0.25 0.25,0.25 0.25,0.25c0,0 0.25,0.25 0.25,0.25c0,0 0,0 0.25,0.25c0,0 0.25,0 0.25,0.25c0,0 0.25,0 0.25,0c0,0.25 0,0.25 0.25,0.25c0,0 0,0 0,0c0.25,0.25 0.25,0.25 0.25,0.25c0,0 0.25,0 0.25,0.25c0,0 0,0 0,0c0.25,0.25 0.25,0.25 0.25,0.25c0,0 0.25,0.25 0.25,0.25c0,0 0,0 0.25,0.25c0,0 0,0 0,0c0,0 0.25,0 0.25,0.25c0,0 -0.17679,0.07321 0,0.25c0.17679,0.17679 0.25,0 0.25,0c0.25,0.25 0.25,0.25 0.5,0.5c0,0 -0.17679,0.07321 0,0.25c0.17679,0.17679 0.25,0 0.25,0c0.25,0.25 0.25,0.25 0.25,0.25c0.25,0.25 0.25,0.25 0.25,0.25c0.25,0.25 0.25,0.25 0.25,0.25c0.25,0 0.25,0.25 0.25,0.25c0.25,0 0.32321,0.07321 0.5,0.25c0.17679,0.17679 0.07321,0.07321 0.25,0.25c0.17679,0.17679 0,0.25 0.25,0.25c0,0 0,0.25 0.25,0.25c0,0 0,0.25 0,0.25c0.25,0 0.25,0.25 0.25,0.25c0.25,0 0.25,0 0.25,0.25c0,0 0.07321,-0.17679 0.25,0c0.17679,0.17679 0,0.25 0,0.25c0.25,0.25 0.25,0.25 0.25,0.5c0,0 0.25,0 0.25,0c0,0.24997 0,0.24997 0,0.24997c0,0 0.25,0 0.25,0.25c0,0 -0.17679,0.07321 0,0.25c0.17679,0.17679 0.25,0 0.25,0c0,0.25 0,0.25 0,0.25c0.25,0 0.25,0.25 0.25,0.25c0,0 0,0 0,0c0,0.25 0,0.25 0,0.25c0,0 0,0.25 0,0.25c0,0 0,0 0,0.25c0,0 0,0 0,0.25c0,0 0,0 0,0.25c0,0 0,0 0,0.25c0,0 0,0.25 0,0.25c0,0 0,0.25 0,0.25c0,0 0,0.25 0,0.25c0,0.25 0,0.25 0,0.5c0,0 0,0.25 0,0.5c0,0.25 0,0.5 0,0.5c0,0.25 0,0.5 0,0.5c0,0.25 0,0.25 0,0.5c0,0 0,0 0,0.25c0,0 0,0.25 0,0.25c0,0 0.25,0.5 0.25,0.25c0,-0.25 -0.25,0 -0.5,0c-0.25,0 -0.25,0 -0.5,0c-0.25,0 -0.25,0 -0.25,0c-0.25,0 -0.25,0 -0.25,0c0,0 0,0 -0.25,0c0,0 0,0 0,0c0,0 -0.25,0 -0.25,0c0,0 0,0.25 0,0.25c-0.25,0 -0.25,0 -0.25,0c0,0 0,0 -0.25,0c0,0 0,0 0,0c0,0 -0.25,0 -0.25,0c0,0 0,0 -0.25,0c0,0 0,0.25 -0.25,0.25c0,0 0,0 -0.25,0c0,0 -0.25,0 -0.25,0c-0.25,0 -0.25,0 -0.5,0.25c0,0 -0.5,0 -0.5,0c-0.25,0 -0.42337,0.11472 -0.75,0.25c-0.23096,0.09567 -0.5,0 -0.5,0c-0.25,0 -0.25,0 -0.5,0.25c0,0 -0.25,0 -0.25,0c0,0 -0.25,0 -0.25,0c0,0 -0.25,0 -0.25,0c-0.25,0 -0.25,0 -0.5,0c0,0 -0.25,0 -0.25,0c-0.25,0 -0.25,0 -0.25,0c-0.25,0 -0.25,0 -0.5,0c0,0 0,0 0,0c-0.25,0 -0.25,0 -0.25,0c-0.25,0 -0.25,0 -0.25,0c-0.25,0 -0.25,0 -0.25,0c-0.25,0 -0.25,0.25 -0.25,0.25c0,0 -0.25,0 -0.25,0c-0.25,0 -0.25,0 -0.5,0c0,0 -0.25,0 -0.25,0c0,0 -0.25,0 -0.25,0c0,0 -0.25,0 -0.25,0c-0.25,0 -0.25,0 -0.25,0c-0.25,0 -0.25,0 -0.5,0c0,0 0,0 -0.25,0c0,0 0,0 0,0c-0.25,0 -0.25,0 -0.25,0c0,0 -0.25,0 -0.25,0c0,0 0,0 -0.25,0c0,0 0,0 0,0c-0.25,0 -0.25,0 -0.25,0c0,0 -0.25,0 -0.25,0c0,0 -0.25,0 -0.25,0c-0.5,0 -0.42337,-0.11472 -0.75,-0.25c-0.23096,-0.09567 -0.5,0 -0.5,0c-0.25,0 -0.25,0 -0.25,0c0,0 -0.25,0 -0.25,0c0,0 -0.25,0 -0.25,0c0,0 -0.25,0 -0.25,0c0,0 -0.25,0 -0.25,0c-0.25,0 -0.25,0 -0.5,0c-0.25,0 -0.25,0 -0.5,0c0,0 -0.25,0 -0.25,0c-0.25,0 -0.25,0 -0.5,0c0,0 -0.25,0 -0.25,0c-0.25,0 -0.25,0 -0.5,0c0,0 -0.25,0 -0.25,0c-0.24997,0 -0.49997,0 -0.74997,0c0,0 -0.25,0 -0.5,0c0,0 -0.25,0 -0.5,0c0,0 -0.25,0 -0.5,0c0,0 -0.25,0 -0.5,0c-0.25,0 -0.5,0 -0.75,0c0,0 -0.25,0 -0.25,0c-0.25,0 -0.25,0 -0.5,0c-0.25,0 -0.25,0 -0.5,0c0,0 -0.25,0 -0.25,0c-0.25,0 -0.25,0 -0.5,0c0,0 -0.25,0 -0.5,0c-0.25,0 -0.5,0 -0.75,0c-0.25,0 -0.25,0 -0.5,0c-0.25,0 -0.5,0 -0.75,0c0,0 -0.25,0 -0.5,0c-0.25,0 -0.5,0 -0.5,0c-0.25,0 -0.5,0 -0.5,0c-0.25,0 -0.25,0 -0.25,0c-0.25,0 -0.25,0 -0.5,0c0,0 -0.25,0 -0.25,0c-0.25,0 -0.5,0 -0.75,0c-0.25,0 -0.5,0.25 -0.75,0.25c-0.25,0 -0.5,0 -0.5,0c-0.25,0 -0.5,0 -0.75,0c-0.25,0 -0.5,0 -0.75,0c-0.25,0 -0.25,0 -0.75,0c0,0 -0.5,0 -0.5,0c-0.25,0 -0.5,0 -0.75,0c0,0 0,0 -0.25,0c-0.25,0 -0.25,0 -0.5,0c-0.25,0 -0.25,0 -0.25,0c-0.25,0 -0.25,0 -0.5,0c0,0 -0.25,0 -0.5,0c-0.25,0 -0.5,0 -0.75,0c-0.25,0 -0.5,0 -0.75,0c0,0 -0.25,0 -0.5,0c-0.25,0 -0.25,0 -0.5,0c-0.25,0 -0.5,0 -0.75,0c-0.25,0 -0.25,0 -0.5,0c-0.25,0 -0.25,0 -0.5,0c-0.25,0 -0.5,0 -0.75,0c-0.24997,0 -0.67334,-0.11472 -0.99997,-0.25c-0.23096,-0.09567 -0.25,0 -0.5,0c-0.25,0 -0.5,0 -0.5,0c-0.25,0 -0.5,0 -0.5,0c-0.25,0 -0.5,0 -0.5,0c-0.25,0 -0.5,0 -0.5,0c-0.25,0 -0.25,0 -0.5,0c-0.25,0 -0.5,0 -0.75,0c-0.25,0 -0.25,0 -0.75,0c0,0 -0.5,0 -0.75,0c-0.25,0 -0.5,0 -0.75,0c-0.25,0 -0.5,0 -0.75,0c0,0 -0.25,0 -0.25,0c-0.25,0 -0.5,0 -0.5,0c-0.25,0 -0.25,0 -0.5,0c0,0 -0.25,0 -0.25,0c-0.25,0 -0.25,0 -0.5,0c0,0 -0.25,0 -0.5,0c0,0 -0.25,0 -0.25,0c-0.25,0 -0.5,0 -0.75,0c0,0 -0.25,0 -0.25,0c-0.25,0 -0.25,0 -0.5,0c0,0 -0.25,0 -0.25,0c-0.25,0 -0.25,0 -0.25,0c-0.25,0 -0.25,0 -0.25,0c-0.25,0 0,0 0,0c0.5,0 0.75,0.25 0.75,0.25c0,0 0,-0.25 0,-0.25c0,0 0,-0.25 0,-0.25c0,-0.25 0,-0.25 0,-0.25c0,-0.25 0,-0.25 0,-0.25c0,-0.25 0,-0.25 0,-0.5c0,-0.25 0,-0.5 0,-0.5c0,-0.25 0,-0.25 0,-0.5c0,-0.25 0,-0.25 0,-0.5c0,-0.25 0,-0.5 0,-0.75c0,0 0,-0.25 0,-0.25c0,-0.25 0,-0.5 0,-0.5c0,-0.25 0,-0.5 0,-0.5c0,-0.25 0,-0.25 0,-0.5c0,0 0,-0.25 0,-0.25c0,-0.25 0,-0.5 0,-0.75c0,0 0,-0.25 0,-0.5c0,-0.25 0,-0.5 0,-0.5c0,-0.25 0,-0.25 0,-0.5c0,0 0,0 0,0c0,-0.24997 0,-0.24997 0,-0.24997c0,0.24997 0,0 0,0c0.25,0 0.07321,-0.07321 0.25,-0.25c0.17679,-0.17679 0.25,0 0.25,0c0.25,0 0.25,-0.25 0.25,-0.25c0.25,0 0.25,-0.25 0.25,-0.25c0.25,0 0.32321,-0.07321 0.5,-0.25c0.17679,-0.17679 0.25,-0.25 0.25,-0.5c0,0 0.25,-0.25 0.25,-0.25c0.25,-0.25 0.25,-0.25 0.5,-0.5c0,0 0.25,-0.25 0.25,-0.25c0,0 0.25,-0.25 0.25,-0.25c0.25,-0.25 0.32321,-0.32321 0.5,-0.5c0.17679,-0.17679 0.07321,-0.32321 0.25,-0.5c0.17679,-0.17679 0.32321,-0.07321 0.5,-0.25c0.17679,-0.17679 0.57321,-0.32321 0.75,-0.5c0.17679,-0.17679 0.25,-0.25 0.25,-0.25c0.25,0 0.25,-0.25 0.25,-0.25c0.25,0 0.25,0 0.5,-0.25c0,0 0.40433,-0.26904 0.5,-0.5c0.13528,-0.32663 0.5,-0.25 0.75,-0.5c0,0 0.36472,0.07663 0.5,-0.25c0.09567,-0.23096 0.25,-0.25 0.5,-0.5c0,0 0.07321,-0.07321 0.25,-0.25c0.17679,-0.17679 0.25,-0.25 0.25,-0.25c0.25,0 0.25,0 0.25,-0.25c0,0 0.25,0 0.25,-0.25c0,0 0.28732,-0.11856 0.5,-0.25c0.47552,-0.29388 0.5,-0.5 0.75,-0.75c0.25,-0.25 0.32321,-0.07321 0.5,-0.25c0.17679,-0.17679 0.25,-0.25 0.25,-0.25c0.25,0 0.25,-0.25 0.5,-0.25c0,0 0.24997,0 0.24997,-0.25c0,0 0,0 0.25,0c0,0 0,0 0,0c0.25,-0.25 0.25,-0.25 0.25,-0.25c0.25,0 0.25,0 0.25,0c0,0 -0.07663,-0.11472 0.25,-0.25c0.23096,-0.09567 0.25,-0.25 0.5,-0.5c0,0 0,0 0,0c0.25,0 0.25,-0.25 0.25,-0.25c0.25,0 0.25,0 0.25,0c0,0 0.25,0 0.25,0c0,0 0,0 0.25,0c0.25,0 0.25,0 0.5,0c0,0 0.25,0 0.25,0c0.25,0 0.25,0 0.5,0c0.25,0 0.5,0 0.5,0c0.25,0 0.5,-0.25 0.5,-0.25c0.25,0 0.5,0 0.75,-0.25c0,0 0.25,0 0.25,0c0,0 -0.17679,-0.07321 0,-0.25c0.17679,-0.17679 0.25,0 0.25,0c0,0 0,-0.25 0,-0.25c0.25,0 0.19257,-0.25668 0.25,-0.5c0.12845,-0.54407 0.5,-0.5 0.5,-0.75c0,0 0,-0.25 0,-0.5c0,0 0,-0.25 0,-0.25c0,-0.25 0,-0.25 0,-0.5c0,0 0,0 0,-0.25c0,0 0,0 0,-0.25c0,0 0,0 0,0c0,-0.25 0,-0.5 0,-0.5c0,-0.25 0,-0.5 0,-0.5c0,-0.25 -0.07321,-0.32321 -0.25,-0.5c-0.17679,-0.17679 0,-0.25 0,-0.5c0,0 0,-0.25 0,-0.25c0,0 -0.07321,-0.07321 -0.25,-0.25c-0.17679,-0.17679 0,-0.25 -0.25,-0.25c0,0 0,0 0,0c-0.25,0 -0.25,-0.25 -0.5,-0.25c0,0 -0.25,0 -0.5,0c-0.25,0 -0.25,0 -0.5,0c-0.25,0 -0.5,0 -0.5,0c0,0 -0.25,0 -0.25,0c0,0 -0.25,0 -0.25,0c0,0 -0.25,0 -0.25,0c0,0 -0.25,0 -0.25,0c0,0 0,0 -0.25,0.25c0,0 -0.07321,-0.17679 -0.25,0c-0.17679,0.17679 0,0.25 0,0.25c0,0 -0.25,0 -0.25,0.25c0,0 0,0 0,0c0,0.25 0,0.25 0,0.25c0,0 0,0 0,0.25c0,0 0,0 0,0c0,0.25 0,0.25 0,0.25c0,0 0,0.25 0,0.25c-0.25,0 -0.25,0 -0.25,0c0,0.25 0,0.25 0,0.25c0,0 0,0 0,0c0,0.25 0,0.25 0,0.25c0,0 0,0.25 0,0.25c0,0 0,0.25 0,0.25c0,0 -0.25,0.25 -0.25,0.25c0,0 0,0.25 0,0.25c0,0.25 0,0.5 0,0.5c0,0 -0.07321,0.07321 -0.25,0.25c-0.17679,0.17679 0,0.25 0,0.5c0,0 0,0.25 0,0.25c0,0.25 0,0.5 -0.25,0.75c0,0 0,0 0,0.25c0,0 0,0 0,0c0,0 0,0.25 0,0.25c-0.25,0 -0.25,0 -0.25,0c0,0 -0.25,0 -0.25,0c0,0 0,0 -0.25,0c0,0 0,0 -0.25,0c0,0 0,0 -0.25,0c0,0 0,0 -0.24997,0c0,0 -0.25,0 -0.25,0c-0.25,0 -0.25,0 -0.5,0c0,0 -0.25,0 -0.25,0c-0.25,0 -0.25,0 -0.25,0c-0.25,0 -0.25,0 -0.25,0c-0.25,0 -0.32321,-0.17679 -0.5,0c-0.17679,0.17679 0,0.25 0,0.25c-0.25,0 -0.25,0 -0.25,0c-0.25,0 -0.25,0 -0.25,0c-0.25,0 -0.25,0 -0.25,0c-0.25,0 -0.25,0 -0.25,0c-0.25,0 -0.25,0 -0.25,0.25c0,0 -0.25,0 -0.25,0c-0.25,0 -0.25,0 -0.5,0c0,0 0,0 -0.25,0c0,0 -0.25,0 -0.25,0c0,0 -0.25,0 -0.25,0c0,0 -0.25,0 -0.25,0c0,0 -0.25,0 -0.25,0c0,0 -0.25,0 -0.25,0c0,0 -0.25,0 -0.25,0c0,0 0,0 0,0c0,-0.25 0,-0.25 0,-0.5c0,-0.25 0,-0.25 0,-0.5c0,0 0,-0.25 0,-0.25c0,-0.25 0,-0.25 0,-0.5c0,0 0,0 0,-0.25c0,0 0,0 0,0c0,-0.25 0.11472,-0.17337 0.25,-0.5c0.09567,-0.23096 0,-0.25 0,-0.5c0,0 0,-0.25 0,-0.25c0,0 0,0 0,-0.25c0,0 0,0 0,-0.25c0,0 0,0 0,0c0,-0.25 0,-0.25 0,-0.5c0,0 0,0 0,0c0,-0.25 -0.25,-0.25 -0.25,-0.5c0,0 0,0 0,-0.25c0,0 -0.11472,0.07663 -0.25,-0.25c-0.09567,-0.23096 0,-0.5 0,-0.5c0,-0.25 -0.25,-0.25 -0.25,-0.25c0,0 0,0 -0.25,-0.25c0,0 -0.25,0 -0.25,0c0,0 -0.25,0 -0.25,0c0,0 -0.25,0 -0.25,0c-0.25,0 -0.25,0 -0.25,0c-0.25,0 -0.25,0 -0.25,0c-0.25,0 -0.07321,0.07321 -0.25,0.25c-0.17679,0.17679 -0.25,0 -0.25,0c0,0 0,0 -0.25,0c-0.25,0 -0.25,0 -0.25,0c-0.25,0 -0.25,0 -0.25,0c0,0 -0.25,0 -0.25,0c0,0 0,0 -0.25,0c0,0 0,0 0,0c-0.25,0 -0.25,0 -0.25,0c-0.25,0 -0.25,0 -0.5,0c-0.25,0 -0.5,0 -0.75,0c-0.25,0 -0.5,0 -0.75,0c0,0 -0.25,0 -0.5,0c0,0 -0.25,0 -0.75,0c-0.25,0 -0.5,0 -0.5,0c-0.25,0 -0.25,0 -0.25,0c-0.25,0 -0.5,0 -0.5,0c-0.25,0 -0.5,0 -0.75,0c-0.5,0 -0.75,0 -1,0c-0.25,0 -0.5,0 -0.75,0c0,0 -0.25,0 -0.5,0c-0.25,0 -0.75,0 -1,0c-0.25,0 -0.5,0 -0.5,0c-0.25,0 -0.75,0 -1,0c-0.25,0 -0.5,0 -0.75,0c0,0 -0.5,0 -0.75,0c-0.25,0 -0.5,0 -1,0c0,0 -0.25,0 -0.5,0c0,0 -0.24997,0 -0.49997,0c-0.25,0 -0.5,0 -0.75,0c-0.25,0 -0.5,-0.25 -0.75,-0.25c-0.25,0 -0.26904,0.09567 -0.5,0c-0.32663,-0.13528 -0.25,-0.25 -0.5,-0.25c0,0 -0.25,0 -0.25,0c0,0 -0.25,0 -0.25,0c0,0 0,0 0,0c0,-0.25 0.25,-0.25 0.25,-0.25c0,-0.25 0,-0.25 0,-0.25c0,0 0,-0.25 0,-0.25c0,0 0,0 0,-0.25c0,0 0,0 0,-0.25c0,0 0,-0.25 0,-0.25c0,-0.25 0,-0.5 0,-0.5c0,-0.25 0,-0.5 0,-0.5c0,-0.25 0,-0.25 0,-0.5c0,0 0,-0.25 0,-0.5c0,-0.25 0,-0.25 0,-0.5c0,0 0,-0.25 0,-0.5c0,-0.24997 0,-0.24997 0,-0.49997c0,-0.25 0,-0.25 0,-0.5c0,0 0,0 0,-0.25c0,0 0,0 0,-0.25c0,0 0,-0.25 0,-0.25c0,0 0,-0.25 0,-0.25c0,0 0.25,0 0.25,-0.25c0,0 0,0 0,0c0,-0.25 0,-0.25 0,-0.25c0,0 0.25,0 0.25,0c0,0 0,0 0.25,0c0,0 -0.17679,0.07321 0,0.25c0.17679,0.17679 0.25,0 0.25,0c0,0 0,0 0.25,0c0,0 0,0 0.25,0c0,0 0.25,0 0.25,0c0.25,0 0.75,0 1,0c0.49997,0 1.01901,0.09567 1.24997,0c0.32663,-0.13528 0.5,-0.25 0.75,-0.25c0.25,0 0.17337,-0.11472 0.5,-0.25c0.23096,-0.09567 0.5,0 0.75,0c0.25,0 0.5,0 0.75,0c0.25,0 0.5,-0.25 0.75,-0.25c0.25,0 0.75668,0.05743 1,0c0.54407,-0.12845 0.75,-0.25 1.25,-0.25c0.25,0 0.78806,0.19135 1.25,0c0.32663,-0.13528 0.5,-0.25 0.75,-0.25c0.5,0 1,0 1.5,0c0.5,0 0.75,0 1,0c0.5,0 1,-0.25 1.25,-0.25c0.75,0 1.25,0 1.5,0c0.25,0 0.75,0 1,0c0.25,0 0.25,0 0.5,0c0,0 0.25,0 0.25,0c0.25,0 0.5,0 0.75,0c0,0 0.25,0 0,0c0,0 0.17679,-0.07321 0,-0.25c-0.17679,-0.17679 -0.25,-0.25 -0.25,-0.25c0,-0.25 0,-0.25 0,-0.5c0,0 0,-0.25 0,-0.25c0,-0.25 0,-0.5 0,-0.5c0,-0.25 0,-0.25 0,-0.5c0,0 0,-0.25 0,-0.25c0,-0.25 0,-0.25 0,-0.5c0,0 0,-0.25 0,-0.5c0,-0.5 0,-0.75 0,-0.75c0,0 0,0 0,0c-0.25,0 -0.25,0 -0.75,0c-0.25,0 -0.51904,-0.15433 -0.75,-0.25c-0.32663,-0.13528 -0.76904,-0.15433 -1,-0.25c-0.32663,-0.13528 -0.5,-0.25 -0.75,-0.25c-0.25,0 -0.5,-0.25 -1,-0.25c0,0 -0.25,0 -0.25,0c-0.5,0 -0.67337,-0.11472 -1,-0.25c-0.23096,-0.09567 -0.75,0 -0.75,0c-0.25,0 -0.75,0 -1,0c-0.5,0 -0.75,0 -1.25,0c0,0 -0.5,0 -1,0c-0.5,0 -1,0 -1.25,0c-0.25,0 -0.75,0 -1,0c0,0 -0.5,0 -1,0c-0.5,0 -1,0 -1.25,0c-0.25,0 -0.5,0 -0.75,0c-0.25,0 -0.5,0 -0.75,0c-0.74997,0 -0.74997,0 -0.99997,0c0,0 -0.25,0 -0.5,0c-0.25,0 -0.5,0 -0.75,0c-0.25,0 -0.5,0 -0.5,0c-0.25,0 -0.75,0 -0.75,0c-0.25,0 -0.25,0 -0.25,0c-0.25,0 -0.25,0 -0.25,0c0,0 -0.25,-0.25 -0.25,-0.25c0,0 0,0 0,0c0,-0.25 0,-0.25 0,-0.5c0,0 0,-0.25 0,-0.25c0,-0.25 0,-0.25 0,-0.5c0,0 0,-0.25 0,-0.5c0,0 -0.17679,-0.07321 0,-0.25c0.17679,-0.17679 0.25,0 0.25,-0.25c0,-0.25 0,-0.25 0,-0.5c0,0 0,0 0,0c0,0 0.25,0 0.25,0c0,0 0,0 0,0c0,0 0.25,0 0.25,0c0,0 0.25,0 0.25,0c0.25,0 0.25,0 0.5,0c0,0 0,0 0.25,0c0,0 0.25,0 0.25,0c0.25,0 0.25,0 0.5,0c0,0 0.25,0 0.25,0c0.25,0 0.25,0 0.5,0c0,0 0.25,0 0.49997,0c0.25,0 0.5,-0.25 0.75,-0.25c0.5,0 1,0 1.25,0c0.5,0 1,-0.25 1.5,-0.25c0.25,0 0.25,0 0.5,0c0,0 0.25,0 0.5,0c0,0 0.5,-0.25 0.5,-0.25c0.5,0 0.78806,0.19135 1.25,0c0.32663,-0.13528 0.5,-0.25 1,-0.25c0.5,0 0.75,0 1.25,0c0.5,0 0.75,0 1.25,0c0.25,0 0.5,-0.25 0.75,-0.25c0.25,0 0.5,0 0.75,0c0.5,0 0.75,-0.25 1.25,-0.25c0.5,0 0.75,0 1.25,0c0.25,0 0.75,0 1,0c0.5,0 0.75,0 1,0c0.25,0 0.5,0 0.5,0c0.25,0 0.25,0 0.5,0c0,0 -0.25,0.25 0,0.25c0.25,0 0.25,-0.25 0.25,-0.25c0.25,0 0.5,0 0.75,-0.25c0,0 0,0 0.25,0c0,0 0,0 0,0c0.25,0 0.25,0 0.5,-0.25c0,0 0,0 0.25,0c0,0 0,0 0.25,-0.25c0,0 0.25,0 0.25,0c0.25,0 0.25,0 0.5,0c0,0 0.25,0 0.5,0c0,0 0,0 0.25,0c0,0 0.25,0 0.5,0c0,0 0.25,0 0.25,0c0,0 0,0 0.25,0c0,0 0,0 0.25,0.25c0,0 0.25,0 0.25,0c0,0.25 0.25,0.25 0.25,0.25c0,0 0.25,0 0.25,0.25c0,0 0,0 0,0c0,0.25 0,0.25 0,0.25c0,0 0,0.25 0.25,0.25c0,0 0,0 0,0.25c0,0 0,0 0,0c0.24997,0 0.24997,0 0.24997,0c0,0.25 0.07321,0.07321 0.25,0.25c0.17679,0.17679 0,0.25 0,0.25c0,0.25 0.25,0.25 0.25,0.25c0,0.25 0.11472,0.17337 0.25,0.5c0.09567,0.23096 0,0.25 0,0.25c0,0.25 0,0.25 0.25,0.5c0,0 0,0 0,0.25c0,0 0,0 0,0.25c0,0 0,0 0,0.25c0,0 0,0.25 0,0.25c0,0.25 0,0.25 0,0.5c0,0.25 0,0.5 0,0.75c0,0.25 0,0.5 0,0.5c0,0.25 0,0.5 0,0.5c0,0.25 0,0.5 0,0.75c0,0.25 0,0.25 0,0.5c0,0 0,0.25 0,0.25c0,0.25 0,0.25 0,0.25c0,0.25 0,0.25 0,0.25c0,0 0,0.25 0,0.25c0,0 0,0 0,0.25c0,0 0,0 0,0c0,0.25 0.25,0.25 0.25,0.5c0,0 0.25,0.25 0.25,0.25c0,0.25 0.25,0.25 0.25,0.5c0,0 0,0 0.25,0.25c0,0 0,0 0,0c0,0 0.25,0 0.25,0.25c0,0 0,0 0,0c0,0 0.25,0 0.25,0.25c0,0 0.07321,0.07321 0.25,0.25c0.17679,0.17679 0.25,0 0.25,0c0,0 0.25,0 0.25,0.25c0,0 0.07321,-0.17679 0.25,0c0.17679,0.17679 0,0.25 0.25,0.25c0,0 0,0 0,0c0.25,0 0.25,0 0.25,0c0,0 0.25,0 0.25,0c0,-0.25 0,-0.25 0,-0.25c0,0 0.25,-0.25 0.25,-0.25c0,-0.25 0.25,-0.25 0.25,-0.25c0.25,-0.25 0.5,-0.25 0.5,-0.25c0.25,0 0.5,-0.25 0.5,-0.25c0,0 0,0 0,0c0,-0.25 0.07321,-0.07321 0.25,-0.25c0.17679,-0.17679 0.07321,-0.07321 0.25,-0.25c0.17679,-0.17679 0.25,-0.5 0.5,-0.75c0.25,-0.25 0.32321,-0.57321 0.5,-0.75c0.17679,-0.17679 0.25,0 0.25,-0.25c0,0 0,0 0,0c0,-0.25 0.12155,-0.20593 0.25,-0.75c0.05743,-0.24332 0.25,-0.5 0.5,-0.75c0,0 0,-0.25 0,-0.25c0,-0.25 0,-0.5 0,-0.5c0.25,-0.5 0.25,-0.5 0.25,-1c0,-0.25 0.25,-0.5 0.25,-0.75c0,-0.25 0.25,-0.75 0.25,-1c0,-0.25 0,-0.5 0,-0.5c0,-0.25 0,-0.25 0,-0.25c0,0 0.25,-0.25 0.25,-0.5c0,-0.25 0,-0.5 0,-0.5c0,-0.25 0.07321,-0.07321 0.25,-0.25c0.17679,-0.17679 0,-0.5 0,-0.5c0,-0.25 0,-0.25 0,-0.25c0,-0.25 0.25,-0.5 0.25,-0.75c0,0 0,-0.25 0,-0.25c0,0 0,0 0,-0.25c0,0 0,-0.25 0,-0.25c0,-0.25 0,-0.25 0,-0.5c0,0 0,0 0,0c0,-0.25 0,-0.25 0,-0.25c0,-0.25 0,-0.25 -0.25,-0.25c0,0 -0.25,-0.25 -0.25,-0.25c-0.25,-0.25 -0.5,-0.25 -0.75,-0.25c0,0 0,-0.25 -0.25,-0.25c0,0 0,0 -0.25,0c0,0 0,-0.25 0,-0.25c0,0 0,0 0,0c0,-0.25 0,-0.25 0,-0.25c-0.25,-0.25 -0.25,-0.25 -0.25,-0.5c0,0 0,-0.25 -0.25,-0.5c0,0 0,-0.25 0,-0.25c0,-0.25 -0.07321,-0.07321 -0.25,-0.25c-0.17679,-0.17679 0.17679,-0.32321 0,-0.5c-0.17679,-0.17679 -0.25,-0.25 -0.25,-0.25c0,0 0,-0.25 0,-0.25c0,0 0,0 0,-0.25c0,0 0,0 0,-0.25c0,0 0,0 0,0c0,-0.25 0,-0.25 0,-0.25c0,0 0,0 0,-0.25c0,0 0,0 0,0c0,-0.25 0,-0.25 0,-0.25c0.25,-0.25 0.25,-0.25 0.25,-0.25c0,0 0,-0.25 0.25,-0.25c0,0 0,0 0,0c0,0 0.25,0 0.25,0c0,0 0,0 0.25,0c0,0 0,0 0.25,-0.25c0,0 0.25,0 0.25,0c0,-0.25 0,-0.25 0.25,-0.5c0,0 0,0 0,0c0,-0.25 0,-0.25 0,-0.25c0,-0.25 0,-0.49997 0,-0.74997c0,0 0,0 0,0c0,0 0,0 0,0c0,-0.25 0,-0.25 0,-0.25c0,0 0,-0.25 0,-0.25c0,0 0,0 0,-0.25c0,0 0,0 0,0c0,-0.25 0,-0.25 0,-0.25c0,0 0,-0.25 0,-0.25c0,0 0,0 0,-0.25c0,0 0,-0.25 0,-0.5c0,0 0,-0.25 0,-0.25c0,0 0,-0.25 0,-0.25c0,-0.25 0,-0.25 0,-0.5c0,0 0,0 0,-0.25c0,0 0.17679,-0.32321 0,-0.5c-0.17679,-0.17679 -0.25,0 -0.25,-0.25c0,0 0,-0.25 0,-0.25c0,-0.25 0,-0.5 0,-0.5c0,-0.25 0,-0.25 0,-0.5c0,0 0,-0.25 0,-0.25c0,0 0,0 0,-0.25c0,0 0,0 0,-0.25c0,0 0,-0.25 0,-0.25c0,0 0,0 0,-0.25c0,0 0,-0.25 0,-0.5c0,0 -0.09567,-0.26904 0,-0.5c0.13528,-0.32663 0.25,-0.25 0.25,-0.5c0,-0.25 0,-0.25 0,-0.5c0,0 -0.17679,-0.32321 0,-0.5c0.17679,-0.17679 0.25,-0.25 0.25,-0.25c0,-0.25 0,-0.25 0,-0.5c0,-0.5 0.25,-0.5 0.25,-0.75c0,-0.25 0,-0.25 0,-0.25c0,-0.25 0,-0.5 0,-0.75c0,-0.25 0,-0.5 0,-0.5c0,-0.25 0,-0.25 0,-0.5c0,-0.25 0,-0.5 0,-0.5c0,-0.25 -0.25,-0.25 -0.25,-0.25c0,-0.25 0,-0.25 0,-0.25c0,-0.5 0,-0.5 0,-0.5c0,-0.25 -0.25,-0.25 -0.25,-0.25c0,-0.25 0,-0.25 0,-0.5c0,0 0,0 0,-0.25c0,0 0,-0.25 0,-0.25c0,-0.25 0,-0.25 0,-0.5c0,-0.25 0,-0.25 0,-0.25c0,-0.25 0,-0.5 0,-0.75c0,-0.25 0,-0.25 0,-0.5c0,-0.25 0,-0.5 0,-0.5c0,-0.25 0,-0.5 0,-0.5c0,-0.25 0,-0.25 0,-0.5c0,-0.25 0,-0.25 0,-0.5c0,-0.25 0,-0.25 0,-0.5c0,0 0,0 0,-0.25c0,0 0,-0.25 0,-0.5c0,0 0,-0.25 0,-0.25c0,-0.25 0,-0.5 0,-0.5c0,-0.25 0,-0.25 0,-0.5c0,-0.25 0,-0.5 0,-0.5c0,-0.25 0,-0.25 0,-0.5c0,-0.24997 0,-0.24997 0,-0.49997c0,-0.25 0,-0.5 0,-0.5c-0.25,-0.25 -0.25,-0.25 -0.25,-0.25c0,-0.25 0,-0.25 0,-0.5c0,0 0,0 -0.25,-0.25c0,0 0,0 0,-0.25c0,0 0,0 0,0c0,-0.25 0,-0.25 0,-0.25c0,-0.25 0,-0.25 0,-0.25c0,-0.25 0,-0.25 0,-0.25c0,0.25 0,0.25 0,0.25c0,0 0,0 0,0.25c0,0 0,-0.25 0,-0.25c0,0 0,0 0,-0.25c0,0 0,0 0,0c0,-0.25 0,-0.25 0,-0.25c0,0 0,0 0,-0.25c0,0 0,0 0,0c0,-0.25 0,-0.25 0,-0.25c0,0 0,-0.25 0,-0.25c0.25,-0.25 0.25,-0.25 0.25,-0.5c0,0 0,-0.25 0,-0.25c0,0 0,0 0,-0.25c0,0 0,0 0,0c0,-0.25 0,-0.25 0,-0.25c0,0 0,-0.25 0,-0.25c0,0 0,-0.25 0,-0.5c0,0 0,0 0,-0.25c0,0 0,0 0,0c0,-0.25 0,-0.25 0,-0.25c0,-0.25 0,-0.25 0,-0.25c0,-0.25 0,-0.5 0,-0.5c0,-0.25 0.07321,-0.32321 0.25,-0.5c0.17679,-0.17679 0,-0.5 0,-0.5c0,-0.25 0,-0.25 0,-0.5c0,0 0,-0.25 0,-0.5c0,0 0,0 0,-0.25c0,0 0,-0.25 0,-0.5c0,0 0,-0.25 0,-0.25c0,-0.25 0,-0.25 0,-0.5c0,-0.25 0,-0.25 0,-0.5c0,0 0,-0.25 0,-0.25c0,-0.25 0,-0.25 0,-0.5c0,0 0,0 0,-0.25c0,0 0,-0.25 0,-0.25c0,-0.25 0,-0.25 0,-0.5c0,0 0,-0.25 0,-0.25c0,-0.25 0,-0.25 0,-0.5c0,0 0,-0.25 0,-0.25c0,0 0,-0.25 0,-0.25c0,0 0,-0.25 0,-0.5c0,-0.5 0,-0.75 0,-1c0,-0.25 -0.25,-0.25 -0.25,-0.25c0,-0.25 0,-0.5 0,-0.5c0,-0.25 0,-0.25 0,-0.5c0,0 0,0 0,-0.25c0,-0.25 0,-0.25 0,-0.25c0,-0.25 0,-0.5 0,-0.5c0,0 0,0 0,-0.25c0,0 0,-0.25 0,-0.25c0,-0.25 0,-0.5 0,-0.5c0,0 -0.25,-0.25 -0.25,-0.25c0,0 0,-0.25 0,-0.25c0,-0.25 0,-0.25 0,-0.5c0,0 0,0 0,-0.25c0,0 0,-0.25 0,-0.25c0,0 0,0 0,-0.25c0,0 0,0 0,-0.25c0,0 0,0 0,-0.25c0,0 0,0 0,-0.25c0,0 0,0 0,0c0,-0.25 -0.07321,-0.07321 -0.25,-0.25c-0.17679,-0.17679 0,-0.25 0,-0.25c0,0 0,-0.25 0,-0.25c0,0 0,0 0,-0.25c0,0 0,0 0,0c0,0 0,0 0.25,0c0,0 0,0 0,0c0,0 0,-0.25 0,-0.25c0,0 0,0 0,0l0,0l0,0.25l-0.25,0" id="svg_9"/>
 </g>

</svg>