<?xml version="1.0" encoding="utf-8"?>
<svg version="1.1" id="Layer_1"
xmlns="http://www.w3.org/2000/svg"
xmlns:xlink="http://www.w3.org/1999/xlink"
xmlns:author="http://www.sothink.com"
width="349px" height="272px"
xml:space="preserve">
<g id="69" transform="matrix(1, 0, 0, 1, 42.65, 222.55)">
<linearGradient
id="LinearGradID_233" gradientUnits="userSpaceOnUse" gradientTransform="matrix(0.0366821, 0, 0, 0.0249634, -1.75, -129.25)" spreadMethod ="pad" x1="-819.2" y1="0" x2="819.2" y2="0" >
<stop  offset="0" style="stop-color:#FFFFFF;stop-opacity:1" />
<stop  offset="1" style="stop-color:#99CC00;stop-opacity:1" />
</linearGradient>
<path style="fill:url(#LinearGradID_233) " d="M-41.9,49.4L-42.65 49.4L-42.65 -204.55L-1.75 -204.55L-1.75 -0.55L-3.25 -0.55L-41.9 49.4" />
<linearGradient
id="LinearGradID_234" gradientUnits="userSpaceOnUse" gradientTransform="matrix(0, -0.0436401, 0.0304871, 0, 135.85, -8.3)" spreadMethod ="pad" x1="-819.2" y1="0" x2="819.2" y2="0" >
<stop  offset="0" style="stop-color:#FFFFFF;stop-opacity:1" />
<stop  offset="1" style="stop-color:#FFCC00;stop-opacity:1" />
</linearGradient>
<path style="fill:url(#LinearGradID_234) " d="M271.9,1.9L271.9 22.9L272.25 22.9L272.25 49.4L-41.9 49.4L-3.25 -0.55L-1.75 -0.55L272.25 -0.55L272.25 1.9L271.9 1.9" />
<linearGradient
id="LinearGradID_235" gradientUnits="userSpaceOnUse" gradientTransform="matrix(0.0366821, 0, 0, 0.0187683, -1.75, -114.5)" spreadMethod ="pad" x1="-819.2" y1="0" x2="819.2" y2="0" >
<stop  offset="0" style="stop-color:#FFFFFF;stop-opacity:1" />
<stop  offset="1" style="stop-color:#99CC00;stop-opacity:1" />
</linearGradient>
<path style="fill:url(#LinearGradID_235) " d="M-42.65,-204.55L-42.65 -206.05L-42.65 -222.55L-1.75 -222.55L-1.75 -204.55L-42.65 -204.55" />
<linearGradient
id="LinearGradID_236" gradientUnits="userSpaceOnUse" gradientTransform="matrix(0, -0.0436401, 0.0419617, 0, 118.15, -8.15)" spreadMethod ="pad" x1="-819.2" y1="0" x2="819.2" y2="0" >
<stop  offset="0" style="stop-color:#FFFFFF;stop-opacity:1" />
<stop  offset="1" style="stop-color:#FFCC00;stop-opacity:1" />
</linearGradient>
<path style="fill:url(#LinearGradID_236) " d="M272.25,1.9L305.9 1.9L305.9 22.9L272.25 22.9L271.9 22.9L271.9 1.9L272.25 1.9" />
</g>
</svg>
