<?xml version="1.0" encoding="utf-8"?>
<svg version="1.1" id="Layer_1"
xmlns="http://www.w3.org/2000/svg"
xmlns:xlink="http://www.w3.org/1999/xlink"
xmlns:author="http://www.sothink.com"
width="84px" height="38px"
xml:space="preserve">
<g id="77" transform="matrix(1, 0, 0, 1, -79.1, 73.3)">
<path style="fill:#FFCF00;fill-opacity:1" d="M80.6,-71.8L160.6 -71.8L160.6 -50.95L80.6 -50.95L80.6 -71.8" />
<path style="fill:none;stroke-width:3;stroke-linecap:round;stroke-linejoin:round;stroke-miterlimit:3;stroke:#FFCF00;stroke-opacity:1" d="M80.6,-71.8L160.6 -71.8L160.6 -50.95L80.6 -50.95L80.6 -71.8z" />
<path style="fill:#FFCF00;fill-opacity:1" d="M80.6,-60.7L160.7 -60.7L160.7 -47.6Q160.7 -37.6 150.7 -37.6L90.6 -37.6Q80.6 -37.6 80.6 -47.6L80.6 -60.7" />
<path style="fill:none;stroke-width:3;stroke-linecap:round;stroke-linejoin:round;stroke-miterlimit:3;stroke:#FFCF00;stroke-opacity:1" d="M80.6,-47.6Q80.6 -37.6 90.6 -37.6L150.7 -37.6Q160.7 -37.6 160.7 -47.6L160.7 -60.7L80.6 -60.7L80.6 -47.6z" />
</g>
</svg>
